<mxfile host="app.diagrams.net" agent="Mozilla/5.0 (Windows NT 10.0; Win64; x64) AppleWebKit/537.36 (KHTML, like Gecko) Chrome/131.0.0.0 Safari/537.36" version="26.0.4">
  <diagram id="C5RBs43oDa-KdzZeNtuy" name="Page-1">
    <mxGraphModel dx="1434" dy="738" grid="1" gridSize="10" guides="1" tooltips="1" connect="1" arrows="1" fold="1" page="1" pageScale="1" pageWidth="827" pageHeight="1169" math="0" shadow="0">
      <root>
        <mxCell id="WIyWlLk6GJQsqaUBKTNV-0" />
        <mxCell id="WIyWlLk6GJQsqaUBKTNV-1" parent="WIyWlLk6GJQsqaUBKTNV-0" />
        <mxCell id="PHCjdfULPfN1nsbTBeWl-2" value="" style="edgeStyle=orthogonalEdgeStyle;rounded=0;orthogonalLoop=1;jettySize=auto;html=1;" edge="1" parent="WIyWlLk6GJQsqaUBKTNV-1" source="PHCjdfULPfN1nsbTBeWl-0" target="PHCjdfULPfN1nsbTBeWl-1">
          <mxGeometry relative="1" as="geometry" />
        </mxCell>
        <mxCell id="PHCjdfULPfN1nsbTBeWl-0" value="Inicio" style="ellipse;whiteSpace=wrap;html=1;aspect=fixed;" vertex="1" parent="WIyWlLk6GJQsqaUBKTNV-1">
          <mxGeometry x="350" y="90" width="80" height="80" as="geometry" />
        </mxCell>
        <mxCell id="PHCjdfULPfN1nsbTBeWl-4" value="" style="edgeStyle=orthogonalEdgeStyle;rounded=0;orthogonalLoop=1;jettySize=auto;html=1;" edge="1" parent="WIyWlLk6GJQsqaUBKTNV-1" source="PHCjdfULPfN1nsbTBeWl-1" target="PHCjdfULPfN1nsbTBeWl-3">
          <mxGeometry relative="1" as="geometry" />
        </mxCell>
        <mxCell id="PHCjdfULPfN1nsbTBeWl-1" value="Mostrar mensaje &quot;por favor ingrese una palabra&quot;" style="shape=parallelogram;perimeter=parallelogramPerimeter;whiteSpace=wrap;html=1;fixedSize=1;fillColor=#ffe6cc;strokeColor=#d79b00;" vertex="1" parent="WIyWlLk6GJQsqaUBKTNV-1">
          <mxGeometry x="250" y="200" width="280" height="80" as="geometry" />
        </mxCell>
        <mxCell id="PHCjdfULPfN1nsbTBeWl-6" value="" style="edgeStyle=orthogonalEdgeStyle;rounded=0;orthogonalLoop=1;jettySize=auto;html=1;" edge="1" parent="WIyWlLk6GJQsqaUBKTNV-1" source="PHCjdfULPfN1nsbTBeWl-3" target="PHCjdfULPfN1nsbTBeWl-5">
          <mxGeometry relative="1" as="geometry" />
        </mxCell>
        <mxCell id="PHCjdfULPfN1nsbTBeWl-3" value="definir la variable cantidad_letras y asignar la longitud de palabra_ingresada" style="rounded=1;whiteSpace=wrap;html=1;fillColor=#dae8fc;strokeColor=#6c8ebf;" vertex="1" parent="WIyWlLk6GJQsqaUBKTNV-1">
          <mxGeometry x="275" y="310" width="230" height="110" as="geometry" />
        </mxCell>
        <mxCell id="PHCjdfULPfN1nsbTBeWl-8" style="edgeStyle=orthogonalEdgeStyle;rounded=0;orthogonalLoop=1;jettySize=auto;html=1;entryX=0.5;entryY=0;entryDx=0;entryDy=0;" edge="1" parent="WIyWlLk6GJQsqaUBKTNV-1" source="PHCjdfULPfN1nsbTBeWl-5" target="PHCjdfULPfN1nsbTBeWl-7">
          <mxGeometry relative="1" as="geometry" />
        </mxCell>
        <mxCell id="PHCjdfULPfN1nsbTBeWl-5" value="mostrar mensaje: &quot;la palabre tiene&quot;, cantidad_letras,&quot;letras&quot;" style="shape=parallelogram;perimeter=parallelogramPerimeter;whiteSpace=wrap;html=1;fixedSize=1;fillColor=#ffe6cc;strokeColor=#d79b00;" vertex="1" parent="WIyWlLk6GJQsqaUBKTNV-1">
          <mxGeometry x="235" y="450" width="310" height="70" as="geometry" />
        </mxCell>
        <mxCell id="PHCjdfULPfN1nsbTBeWl-7" value="Fin" style="ellipse;whiteSpace=wrap;html=1;aspect=fixed;" vertex="1" parent="WIyWlLk6GJQsqaUBKTNV-1">
          <mxGeometry x="350" y="560" width="80" height="80" as="geometry" />
        </mxCell>
      </root>
    </mxGraphModel>
  </diagram>
</mxfile>
